<?xml version="1.0" encoding="utf-8"?>
<!-- Generator: Adobe Illustrator 17.0.0, SVG Export Plug-In . SVG Version: 6.00 Build 0)  -->
<!DOCTYPE svg PUBLIC "-//W3C//DTD SVG 1.1//EN" "http://www.w3.org/Graphics/SVG/1.1/DTD/svg11.dtd">
<svg version="1.1" id="Layer_1" xmlns="http://www.w3.org/2000/svg" xmlns:xlink="http://www.w3.org/1999/xlink" x="0px" y="0px"
	 width="186.22px" height="44.709px" viewBox="0 0 186.22 44.709" enable-background="new 0 0 186.22 44.709" xml:space="preserve">
<g>
	<g>
		<g>
			<path fill="#0588B5" d="M-222.919-569.334h-66c-14.912,0-27-12.088-27-27v-66c0-14.912,12.088-27,27-27h66
				c14.912,0,27,12.088,27,27v66C-195.919-581.422-208.007-569.334-222.919-569.334z"/>
		</g>
	</g>
</g>
<g>
	<g>
		<g>
			<linearGradient id="SVGID_1_" gradientUnits="userSpaceOnUse" x1="-255.919" y1="-641.7231" x2="-255.919" y2="-565.0499">
				<stop  offset="0.7034" style="stop-color:#FFFFFF"/>
				<stop  offset="0.8117" style="stop-color:#DEE0E1"/>
				<stop  offset="0.9013" style="stop-color:#C8CACC"/>
				<stop  offset="0.9858" style="stop-color:#FFFFFF"/>
			</linearGradient>
			<path fill="url(#SVGID_1_)" d="M-222.919-569.334h-66c-14.912,0-27-12.088-27-27v-66c0-14.912,12.088-27,27-27h66
				c14.912,0,27,12.088,27,27v66C-195.919-581.422-208.007-569.334-222.919-569.334z"/>
		</g>
	</g>
</g>
<g>
</g>
<g>
	<g>
		<path fill="#FFFFFF" d="M-224.356-598.366c0.833,0.027,2.235-0.411,2.57-1.146c0.475-0.797,1.52-5.035,1.897-6.014
			c0.293-0.759,1.039-4.235,1.238-7.229c0.023-0.349,0.083-0.819-0.437-1.03c-0.664-0.27-0.885,0.083-1.1,0.328
			c-1.374,1.565-3.307,3.375-4.622,4.991c-0.461,0.529-0.479,0.729-0.533,1.13c-0.329,2.474-0.783,5.943-0.711,7.276
			C-226.041-599.842-224.617-598.375-224.356-598.366z"/>
		<g>
			<path fill="#FFFFFF" d="M-220.86-640.054c-0.742-0.069-1.489-0.091-2.236-0.113v0c-2.66,3.725-5.919,7.509-10.069,11.717
				c-6.063,6.152-12.789,11.763-19.992,16.68c-2.579,1.757-7.403,4.287-9.776,5.646c-0.001,0,1.897,4.305,1.954,4.806
				c1.385,4.71,2.923,6.505,4.11,11.272c0.507,2.036,1.614,2.487,2.766,2.571c3.05,0.221,5.734,0.201,7.285-0.117
				c0.803-0.164,7.122-4.876,8.26-6.148c1.071-1.197,1.598-2.836,2.127-4.347c0.62-1.766,1.244-3.464,2.481-4.965
				c0.963-1.172,2.276-3.969,3-5.3c0.32-0.587,0.494-1.324,0.483-1.992c-0.037-2.294-0.793-5.17-0.743-7.459
				c0.076-3.436-0.115-3.971,0.931-4.932c0.204-0.189,6.894-6.385,7.187-7.118c0.257-0.637,2.742-6.5,3.395-8.444
				C-219.205-639.769-219.309-639.91-220.86-640.054z"/>
			<path fill="#FFFFFF" d="M-280.705-630.113c1.029-0.317,1.72-0.499,2.785-0.797c0.01-0.012,0.021-0.024,0.031-0.035
				c0.891-0.255,1.802-0.51,2.701-0.76c0.013-0.004,0.026-0.008,0.039-0.012c2.035-0.566,3.143-0.915,3.781-1.047
				c0.142-0.033,0.261-0.052,0.37-0.056c0.177-0.013,0.297,0.008,0.388,0.063c0,0,0.006,0.003,0.011,0.006
				c0.189,0.075,0.398,0.212,0.705,0.429c0.078,0.055,0.161,0.113,0.246,0.173c0.049,0.034,0.099,0.069,0.15,0.105
				c0.027,0.019,0.054,0.038,0.082,0.057c1.144,0.791,2.737,1.83,3.765,2.477c0.772,0.487,0.744,0.846,0.7,1.77
				c-0.061,1.341-0.191,4.168-0.269,5.858c2.513-0.689,4.825-1.772,6.849-2.809c4.434-2.273,8.744-5.171,13.179-8.864
				c5.221-4.349,9.01-8.34,11.917-12.559c0.254-0.37,0.513-0.752,0.765-1.153l0,0c-0.625-0.662-1.018-1.083-1.018-1.083
				s-5.013-13.252-5.341-14.061c-0.468-1.157-0.824-1.555-2.033-1.655c-2.982-0.244-6.317-0.559-9.29-0.892
				c-2.292-0.257-3.74-0.502-3.956-0.27c-0.25,0.272-0.794,0.924-1.346,1.59v0.002h-0.002c-1.14-0.498-2.153-1.113-3.262-1.392
				c-1.727-0.435-4.149-1.694-4.317-1.833c-0.141-0.117-2.164-2.601-2.677-4.188c-0.083-0.261-0.585-0.315-0.898-0.278
				c-4.695,0.535-9.388,1.098-14.07,1.733c-0.607,0.08-1.32,0.476-1.694,0.939c-3.508,4.336-8.303,10.254-11.221,14.148
				c-0.911,1.213-1.279,1.068-0.363,3.068c0.813,1.779,2.083,4.941,2.083,4.941s-0.748,4.747-0.959,6.781
				c-0.07,0.685,0.07,0.694,0.628,1.15c3.229,2.631,6.763,5.561,9.936,8.255C-281.637-629.742-281.531-629.859-280.705-630.113z
				 M-255.498-663.634C-255.522-663.614-255.563-663.614-255.498-663.634L-255.498-663.634z"/>
		</g>
	</g>
	<path fill="#A1CE5E" d="M-217.419-655.688c-0.415,3.14-1.659,6-3.182,8.742c-1.3,2.342-2.753,4.565-4.323,6.698
		c-2.805,3.814-5.98,7.337-9.323,10.73c-6.052,6.139-12.648,11.632-19.768,16.491c-2.088,1.424-4.212,2.792-6.385,4.069
		c-3.54,2.079-7.209,3.923-11.073,5.398c-3.59,1.368-7.261,2.494-11.158,2.407c-1.142-0.026-2.318-0.261-3.403-0.628
		c-1.964-0.665-2.968-2.183-3.177-4.225c-0.302-2.929,0.598-5.617,1.766-8.225c2.52-5.619,6.187-10.482,10.182-15.114
		c0.694-0.802,1.403-1.59,2.116-2.373c1.146-0.32,2.268-0.631,3.306-0.92c0.628-0.178,0.9-0.246,1.233-0.12
		c-0.724,1.113-1.403,2.162-1.403,2.162l0.028,0.046c-1.133,1.912-2.14,3.875-2.323,6.157c-0.13,1.629,0.272,3.068,1.768,3.958
		c1.298,0.772,2.742,0.857,4.206,0.7c1.092-0.117,2.153-0.32,3.192-0.591c2.599-0.676,5.056-1.777,7.464-3.01
		c4.841-2.481,9.284-5.574,13.457-9.049c4.571-3.806,8.805-7.942,12.2-12.865c0.2-0.289,0.398-0.583,0.589-0.876
		c1.296-1.99,2.379-4.086,2.801-6.481c0.474-2.679-0.787-4.773-3.129-5.195c-1.748-0.315-3.445-0.148-5.197,0.294
		c-0.265-0.689-0.524-1.368-0.776-2.016c1.285-0.511,2.549-1.016,3.83-1.464c3.334-1.17,6.731-2.077,10.312-1.918
		c1.794,0.08,3.519,0.465,4.828,1.803C-217.274-659.585-217.158-657.649-217.419-655.688z"/>
</g>
<rect x="60.617" y="-709.556" fill="#02688A" width="162.037" height="162.25"/>
<g>
	<g>
		<g>
			<linearGradient id="SVGID_2_" gradientUnits="userSpaceOnUse" x1="134.1277" y1="-641.7231" x2="134.1277" y2="-565.0499">
				<stop  offset="0.7034" style="stop-color:#FFFFFF"/>
				<stop  offset="0.8117" style="stop-color:#DEE0E1"/>
				<stop  offset="0.9013" style="stop-color:#C8CACC"/>
				<stop  offset="0.9858" style="stop-color:#FFFFFF"/>
			</linearGradient>
			<path fill="url(#SVGID_2_)" d="M167.128-569.334h-66c-14.912,0-27-12.088-27-27v-66c0-14.912,12.088-27,27-27h66
				c14.912,0,27,12.088,27,27v66C194.128-581.422,182.039-569.334,167.128-569.334z"/>
		</g>
	</g>
</g>
<g>
	<g>
		<path fill="#0588B5" d="M165.691-598.366c0.833,0.027,2.235-0.411,2.57-1.146c0.475-0.797,1.52-5.035,1.897-6.014
			c0.293-0.759,1.039-4.235,1.238-7.229c0.023-0.349,0.083-0.819-0.437-1.03c-0.664-0.27-0.885,0.083-1.1,0.328
			c-1.374,1.565-3.307,3.375-4.622,4.991c-0.461,0.529-0.479,0.729-0.533,1.13c-0.329,2.474-0.783,5.943-0.711,7.276
			C164.006-599.842,165.43-598.375,165.691-598.366z"/>
		<g>
			<path fill="#0588B5" d="M169.187-640.054c-0.742-0.069-1.489-0.091-2.236-0.113v0c-2.66,3.725-5.919,7.509-10.069,11.717
				c-6.063,6.152-12.789,11.763-19.992,16.68c-2.579,1.757-7.403,4.287-9.776,5.646c-0.001,0,1.897,4.305,1.954,4.806
				c1.385,4.71,2.923,6.505,4.11,11.272c0.507,2.036,1.614,2.487,2.766,2.571c3.05,0.221,5.734,0.201,7.285-0.117
				c0.803-0.164,7.122-4.876,8.26-6.148c1.071-1.197,1.598-2.836,2.127-4.347c0.62-1.766,1.244-3.464,2.481-4.965
				c0.963-1.172,2.276-3.969,3-5.3c0.32-0.587,0.494-1.324,0.483-1.992c-0.037-2.294-0.793-5.17-0.743-7.459
				c0.076-3.436-0.115-3.971,0.931-4.932c0.204-0.189,6.894-6.385,7.187-7.118c0.257-0.637,2.742-6.5,3.395-8.444
				C170.842-639.769,170.738-639.91,169.187-640.054z"/>
			<path fill="#0588B5" d="M109.342-630.113c1.029-0.317,1.72-0.499,2.785-0.797c0.01-0.012,0.021-0.024,0.031-0.035
				c0.891-0.255,1.802-0.51,2.701-0.76c0.013-0.004,0.026-0.008,0.039-0.012c2.035-0.566,3.143-0.915,3.781-1.047
				c0.142-0.033,0.261-0.052,0.37-0.056c0.177-0.013,0.297,0.008,0.388,0.063c0,0,0.006,0.003,0.011,0.006
				c0.189,0.075,0.398,0.212,0.705,0.429c0.078,0.055,0.161,0.113,0.246,0.173c0.049,0.034,0.099,0.069,0.15,0.105
				c0.027,0.019,0.054,0.038,0.082,0.057c1.144,0.791,2.737,1.83,3.765,2.477c0.772,0.487,0.744,0.846,0.7,1.77
				c-0.061,1.341-0.191,4.168-0.269,5.858c2.514-0.689,4.825-1.772,6.849-2.809c4.434-2.273,8.744-5.171,13.179-8.864
				c5.221-4.349,9.01-8.34,11.917-12.559c0.254-0.37,0.513-0.752,0.765-1.153l0,0c-0.625-0.662-1.018-1.083-1.018-1.083
				s-5.013-13.252-5.341-14.061c-0.468-1.157-0.824-1.555-2.033-1.655c-2.982-0.244-6.317-0.559-9.29-0.892
				c-2.292-0.257-3.74-0.502-3.956-0.27c-0.25,0.272-0.794,0.924-1.346,1.59v0.002h-0.002c-1.14-0.498-2.153-1.113-3.262-1.392
				c-1.727-0.435-4.149-1.694-4.317-1.833c-0.141-0.117-2.164-2.601-2.677-4.188c-0.083-0.261-0.585-0.315-0.898-0.278
				c-4.695,0.535-9.388,1.098-14.07,1.733c-0.607,0.08-1.32,0.476-1.694,0.939c-3.508,4.336-8.303,10.254-11.221,14.148
				c-0.911,1.213-1.279,1.068-0.363,3.068c0.813,1.779,2.083,4.941,2.083,4.941s-0.748,4.747-0.959,6.781
				c-0.07,0.685,0.07,0.694,0.628,1.15c3.229,2.631,6.763,5.561,9.936,8.255C108.409-629.742,108.516-629.859,109.342-630.113z
				 M134.549-663.634C134.525-663.614,134.484-663.614,134.549-663.634L134.549-663.634z"/>
		</g>
	</g>
	<path fill="#A1CE5E" d="M172.628-655.688c-0.415,3.14-1.659,6-3.182,8.742c-1.3,2.342-2.753,4.565-4.323,6.698
		c-2.805,3.814-5.98,7.337-9.323,10.73c-6.052,6.139-12.648,11.632-19.768,16.491c-2.088,1.424-4.212,2.792-6.385,4.069
		c-3.54,2.079-7.209,3.923-11.073,5.398c-3.59,1.368-7.261,2.494-11.158,2.407c-1.142-0.026-2.318-0.261-3.403-0.628
		c-1.964-0.665-2.968-2.183-3.177-4.225c-0.302-2.929,0.598-5.617,1.766-8.225c2.52-5.619,6.187-10.482,10.182-15.114
		c0.694-0.802,1.403-1.59,2.116-2.373c1.146-0.32,2.268-0.631,3.305-0.92c0.628-0.178,0.9-0.246,1.233-0.12
		c-0.724,1.113-1.403,2.162-1.403,2.162l0.028,0.046c-1.133,1.912-2.14,3.875-2.323,6.157c-0.131,1.629,0.272,3.068,1.768,3.958
		c1.298,0.772,2.742,0.857,4.206,0.7c1.092-0.117,2.153-0.32,3.192-0.591c2.599-0.676,5.056-1.777,7.464-3.01
		c4.841-2.481,9.284-5.574,13.457-9.049c4.571-3.806,8.805-7.942,12.2-12.865c0.2-0.289,0.398-0.583,0.589-0.876
		c1.296-1.99,2.379-4.086,2.801-6.481c0.474-2.679-0.787-4.773-3.129-5.195c-1.748-0.315-3.445-0.148-5.197,0.294
		c-0.265-0.689-0.524-1.368-0.776-2.016c1.285-0.511,2.549-1.016,3.83-1.464c3.334-1.17,6.731-2.077,10.312-1.918
		c1.794,0.08,3.519,0.465,4.828,1.803C172.773-659.585,172.888-657.649,172.628-655.688z"/>
</g>
<g>
	<g>
		<g>
			<path fill="#FFFFFF" d="M101.713,43.03c-0.876,0-1.608-0.293-2.198-0.88s-0.885-1.343-0.885-2.267
				c0-0.925,0.295-1.68,0.885-2.267s1.322-0.881,2.198-0.881c0.912,0,1.65,0.359,2.216,1.076l-0.438,0.283
				c-0.194-0.268-0.45-0.481-0.767-0.643c-0.315-0.161-0.653-0.242-1.012-0.242c-0.724,0-1.327,0.249-1.811,0.748
				s-0.726,1.14-0.726,1.925c0,0.778,0.243,1.418,0.729,1.92s1.089,0.752,1.807,0.752c0.358,0,0.696-0.08,1.012-0.241
				c0.316-0.161,0.572-0.376,0.767-0.644l0.447,0.274C103.342,42.669,102.601,43.03,101.713,43.03z"/>
			<path fill="#FFFFFF" d="M107.546,43.03c-0.633,0-1.142-0.222-1.528-0.666c-0.386-0.443-0.579-0.994-0.579-1.65
				c0-0.657,0.193-1.206,0.579-1.646c0.387-0.441,0.896-0.661,1.528-0.661c0.639,0,1.152,0.22,1.541,0.661
				c0.39,0.44,0.584,0.989,0.584,1.646c0,0.656-0.194,1.207-0.584,1.65C108.699,42.809,108.185,43.03,107.546,43.03z
				 M107.546,42.602c0.498,0,0.893-0.184,1.182-0.552c0.288-0.368,0.433-0.813,0.433-1.336c0-0.518-0.145-0.96-0.433-1.327
				c-0.289-0.368-0.684-0.552-1.182-0.552c-0.492,0-0.884,0.184-1.172,0.552c-0.289,0.367-0.434,0.81-0.434,1.327
				c0,0.517,0.145,0.961,0.434,1.331C106.663,42.416,107.054,42.602,107.546,42.602z"/>
			<path fill="#FFFFFF" d="M115.049,42.921h-0.475v-2.982c0-0.401-0.091-0.686-0.273-0.854c-0.183-0.167-0.446-0.25-0.793-0.25
				c-0.274,0-0.545,0.072-0.812,0.219c-0.268,0.146-0.474,0.325-0.62,0.538v3.329h-0.474v-4.405h0.474v0.666
				c0.177-0.207,0.411-0.388,0.702-0.543c0.292-0.155,0.587-0.232,0.885-0.232c0.925,0,1.387,0.477,1.387,1.432V42.921z"/>
			<path fill="#FFFFFF" d="M120.66,42.921h-0.475v-2.982c0-0.401-0.091-0.686-0.273-0.854c-0.183-0.167-0.446-0.25-0.793-0.25
				c-0.274,0-0.545,0.072-0.812,0.219c-0.268,0.146-0.474,0.325-0.62,0.538v3.329h-0.474v-4.405h0.474v0.666
				c0.177-0.207,0.411-0.388,0.702-0.543c0.292-0.155,0.587-0.232,0.885-0.232c0.925,0,1.387,0.477,1.387,1.432V42.921z"/>
			<path fill="#FFFFFF" d="M124.784,43.03c-0.645,0-1.172-0.216-1.582-0.647s-0.616-0.988-0.616-1.669
				c0-0.645,0.201-1.19,0.603-1.638s0.906-0.67,1.514-0.67c0.645,0,1.152,0.222,1.523,0.665c0.371,0.444,0.557,1.001,0.557,1.67
				v0.127h-3.686c0.024,0.499,0.192,0.916,0.502,1.25c0.311,0.335,0.718,0.502,1.223,0.502c0.584,0,1.063-0.204,1.44-0.611
				l0.247,0.311C126.052,42.793,125.477,43.03,124.784,43.03z M126.298,40.495c-0.006-0.426-0.147-0.812-0.424-1.159
				c-0.277-0.347-0.671-0.52-1.182-0.52c-0.48,0-0.862,0.172-1.145,0.516c-0.283,0.343-0.434,0.73-0.452,1.163H126.298z"/>
			<path fill="#FFFFFF" d="M130.605,43.03c-0.633,0-1.146-0.222-1.542-0.666c-0.395-0.443-0.593-0.994-0.593-1.65
				c0-0.657,0.198-1.206,0.593-1.646c0.396-0.441,0.909-0.661,1.542-0.661c0.645,0,1.164,0.249,1.56,0.747l-0.328,0.292
				c-0.298-0.407-0.699-0.61-1.204-0.61s-0.907,0.178-1.209,0.533c-0.301,0.355-0.451,0.805-0.451,1.346s0.15,0.991,0.451,1.35
				c0.302,0.358,0.704,0.538,1.209,0.538c0.499,0,0.899-0.207,1.204-0.62l0.328,0.292C131.769,42.778,131.249,43.03,130.605,43.03z"
				/>
			<path fill="#FFFFFF" d="M135.136,43.03c-0.577,0-0.866-0.319-0.866-0.958v-3.138h-0.729v-0.419h0.729v-1.204h0.483v1.204h0.894
				v0.419h-0.894V42c0,0.401,0.152,0.602,0.456,0.602c0.2,0,0.365-0.069,0.492-0.21l0.183,0.365
				C135.69,42.939,135.441,43.03,135.136,43.03z"/>
			<path fill="#FFFFFF" d="M137.719,37.822c-0.097,0-0.182-0.037-0.255-0.109c-0.073-0.073-0.109-0.158-0.109-0.256
				c0-0.097,0.036-0.181,0.109-0.251c0.073-0.069,0.158-0.104,0.255-0.104c0.104,0,0.19,0.035,0.261,0.104
				c0.069,0.07,0.104,0.154,0.104,0.251c0,0.104-0.035,0.19-0.104,0.26C137.91,37.787,137.823,37.822,137.719,37.822z
				 M137.956,42.921h-0.474v-4.405h0.474V42.921z"/>
			<path fill="#FFFFFF" d="M143.576,42.921h-0.475v-2.982c0-0.401-0.091-0.686-0.273-0.854c-0.183-0.167-0.446-0.25-0.793-0.25
				c-0.274,0-0.545,0.072-0.812,0.219c-0.268,0.146-0.474,0.325-0.62,0.538v3.329h-0.474v-4.405h0.474v0.666
				c0.177-0.207,0.411-0.388,0.702-0.543c0.292-0.155,0.587-0.232,0.885-0.232c0.925,0,1.387,0.477,1.387,1.432V42.921z"/>
			<path fill="#FFFFFF" d="M147.512,44.709c-0.39,0-0.715-0.048-0.977-0.142c-0.261-0.095-0.517-0.27-0.766-0.524l0.273-0.383
				c0.188,0.225,0.396,0.384,0.625,0.479c0.228,0.094,0.509,0.142,0.844,0.142c0.432,0,0.789-0.116,1.071-0.347
				c0.283-0.231,0.425-0.581,0.425-1.049v-0.703c-0.164,0.244-0.382,0.442-0.652,0.598s-0.564,0.232-0.88,0.232
				c-0.591,0-1.064-0.208-1.424-0.624c-0.358-0.417-0.538-0.975-0.538-1.674c0-0.693,0.182-1.251,0.543-1.674
				c0.362-0.423,0.835-0.634,1.419-0.634c0.632,0,1.143,0.273,1.532,0.82v-0.711h0.483v4.369c0,0.632-0.185,1.094-0.552,1.386
				C148.572,44.562,148.096,44.709,147.512,44.709z M147.558,42.583c0.298,0,0.58-0.077,0.848-0.232s0.469-0.345,0.603-0.57v-2.143
				c-0.134-0.226-0.335-0.415-0.603-0.57s-0.55-0.232-0.848-0.232c-0.475,0-0.851,0.176-1.127,0.528
				c-0.276,0.354-0.415,0.803-0.415,1.351c0,0.547,0.139,0.995,0.415,1.345S147.083,42.583,147.558,42.583z"/>
			<path fill="#FFFFFF" d="M159.534,42.921h-0.602l-0.603-1.496h-3.22l-0.602,1.496h-0.603l2.49-6.084h0.647L159.534,42.921z
				 M158.157,40.951l-1.433-3.558l-1.441,3.558H158.157z"/>
			<path fill="#FFFFFF" d="M161.755,42.921h-0.483v-3.986h-0.729v-0.419h0.729v-0.401c0-0.426,0.106-0.761,0.319-1.004
				s0.505-0.364,0.876-0.364c0.322,0,0.602,0.104,0.839,0.31l-0.228,0.347c-0.164-0.151-0.353-0.228-0.565-0.228
				c-0.505,0-0.758,0.312-0.758,0.939v0.401h0.895v0.419h-0.895V42.921z"/>
			<path fill="#FFFFFF" d="M164.769,42.921h-0.474v-4.405h0.474v0.757c0.432-0.565,0.928-0.849,1.487-0.849v0.521
				c-0.055-0.013-0.134-0.019-0.237-0.019c-0.219,0-0.456,0.082-0.712,0.246c-0.255,0.164-0.435,0.344-0.538,0.538V42.921z"/>
			<path fill="#FFFFFF" d="M168.158,37.822c-0.097,0-0.182-0.037-0.255-0.109c-0.073-0.073-0.109-0.158-0.109-0.256
				c0-0.097,0.036-0.181,0.109-0.251c0.073-0.069,0.158-0.104,0.255-0.104c0.104,0,0.19,0.035,0.261,0.104
				c0.069,0.07,0.104,0.154,0.104,0.251c0,0.104-0.035,0.19-0.104,0.26C168.348,37.787,168.261,37.822,168.158,37.822z
				 M168.395,42.921h-0.474v-4.405h0.474V42.921z"/>
			<path fill="#FFFFFF" d="M172.45,43.03c-0.633,0-1.146-0.222-1.542-0.666c-0.395-0.443-0.593-0.994-0.593-1.65
				c0-0.657,0.198-1.206,0.593-1.646c0.396-0.441,0.909-0.661,1.542-0.661c0.645,0,1.164,0.249,1.56,0.747l-0.328,0.292
				c-0.298-0.407-0.699-0.61-1.204-0.61s-0.907,0.178-1.209,0.533c-0.301,0.355-0.451,0.805-0.451,1.346s0.15,0.991,0.451,1.35
				c0.302,0.358,0.704,0.538,1.209,0.538c0.499,0,0.899-0.207,1.204-0.62l0.328,0.292C173.614,42.778,173.094,43.03,172.45,43.03z"
				/>
			<path fill="#FFFFFF" d="M179.094,42.921h-0.475v-0.52c-0.383,0.419-0.882,0.629-1.496,0.629c-0.407,0-0.766-0.132-1.076-0.396
				s-0.465-0.622-0.465-1.072c0-0.456,0.153-0.812,0.46-1.071c0.308-0.259,0.668-0.388,1.081-0.388c0.62,0,1.119,0.21,1.496,0.629
				v-0.894c0-0.316-0.111-0.563-0.333-0.743s-0.503-0.27-0.844-0.27c-0.547,0-1.01,0.216-1.387,0.647l-0.264-0.328
				c0.456-0.492,1.021-0.738,1.696-0.738c0.475,0,0.86,0.118,1.158,0.355s0.447,0.59,0.447,1.058V42.921z M177.288,42.656
				c0.578,0,1.021-0.353,1.332-0.754V41.23c-0.311-0.407-0.754-0.754-1.332-0.754c-0.358,0-0.648,0.104-0.871,0.31
				c-0.222,0.207-0.333,0.469-0.333,0.785c0,0.315,0.111,0.576,0.333,0.779C176.639,42.555,176.929,42.656,177.288,42.656z"/>
		</g>
		<g>
			<path fill="#FFFFFF" d="M37.012,38.539c0.437,0.014,1.171-0.215,1.346-0.601c0.249-0.417,0.796-2.638,0.994-3.15
				c0.154-0.398,0.544-2.219,0.649-3.787c0.012-0.183,0.044-0.429-0.229-0.539c-0.348-0.141-0.463,0.043-0.576,0.172
				c-0.72,0.82-1.732,1.768-2.422,2.614c-0.242,0.277-0.251,0.382-0.279,0.592c-0.172,1.296-0.41,3.113-0.372,3.812
				C36.129,37.766,36.875,38.535,37.012,38.539z"/>
			<g>
				<path fill="#FFFFFF" d="M38.844,16.7c-0.389-0.036-0.78-0.048-1.171-0.059v0c-1.393,1.952-3.101,3.934-5.275,6.138
					c-3.176,3.223-6.7,6.162-10.473,8.738c-1.205,0.821-3.345,1.963-4.676,2.706c-0.162,0.09,0.548,2.507,0.578,2.769
					c0.726,2.468,1.531,3.408,2.153,5.905c0.266,1.067,0.846,1.303,1.449,1.347c1.598,0.116,3.004,0.105,3.816-0.061
					c0.421-0.086,3.731-2.555,4.327-3.221c0.561-0.627,0.837-1.486,1.114-2.277c0.325-0.925,0.652-1.815,1.3-2.601
					c0.505-0.614,1.192-2.079,1.572-2.776c0.167-0.308,0.259-0.694,0.253-1.044c-0.02-1.202-0.415-2.709-0.389-3.908
					c0.04-1.8-0.06-2.08,0.488-2.584c0.107-0.099,3.611-3.345,3.765-3.729c0.134-0.334,1.437-3.405,1.778-4.424
					C39.71,16.85,39.656,16.776,38.844,16.7z"/>
				<path fill="#FFFFFF" d="M7.493,21.908c0.539-0.166,0.901-0.261,1.459-0.418c0.005-0.006,0.011-0.012,0.016-0.019
					c0.467-0.133,0.944-0.267,1.415-0.398c0.007-0.002,0.014-0.004,0.021-0.006c1.066-0.297,1.646-0.479,1.981-0.548
					c0.074-0.017,0.137-0.027,0.194-0.029c0.093-0.007,0.156,0.004,0.203,0.033c0,0,0.003,0.002,0.006,0.003
					c0.099,0.039,0.209,0.111,0.369,0.225c0.041,0.029,0.084,0.059,0.129,0.091c0.026,0.018,0.052,0.036,0.079,0.055
					c0.014,0.01,0.028,0.02,0.043,0.03c0.599,0.414,1.434,0.959,1.972,1.298c0.404,0.255,0.39,0.443,0.367,0.927
					c-0.032,0.702,0.204,2.97,0.373,2.916c1.119-0.357,2.153-0.847,3.074-1.319c2.323-1.191,4.581-2.709,6.904-4.644
					c2.735-2.278,4.72-4.369,6.243-6.579c0.133-0.194,0.269-0.394,0.401-0.604l0,0c-0.327-0.347-0.533-0.567-0.533-0.567
					s-2.626-6.943-2.798-7.366c-0.245-0.606-0.432-0.815-1.065-0.867c-1.562-0.128-3.309-0.293-4.867-0.467
					c-1.201-0.134-1.959-0.263-2.072-0.141c-0.131,0.142-0.416,0.484-0.705,0.833v0.001h-0.001
					c-0.597-0.261-1.128-0.583-1.709-0.729c-0.905-0.228-2.174-0.887-2.261-0.96c-0.074-0.062-1.134-1.363-1.402-2.194
					c-0.043-0.137-0.306-0.165-0.471-0.146c-2.46,0.28-4.918,0.575-7.371,0.908C7.167,1.267,6.793,1.475,6.597,1.717
					C4.76,3.989,2.248,7.089,0.719,9.129c-0.477,0.636-0.67,0.559-0.19,1.607c0.426,0.932,1.091,2.588,1.091,2.588
					s-0.392,2.487-0.502,3.552c-0.036,0.359,0.036,0.363,0.329,0.603c1.692,1.378,3.543,2.913,5.205,4.325
					C7.004,22.103,7.06,22.041,7.493,21.908z M20.698,4.348C20.685,4.358,20.664,4.358,20.698,4.348L20.698,4.348z"/>
			</g>
		</g>
		<path fill="#FFFFFF" d="M40.646,8.51c-0.218,1.645-0.869,3.143-1.667,4.58c-0.681,1.227-1.442,2.391-2.265,3.509
			c-1.47,1.998-3.133,3.844-4.884,5.621c-3.17,3.216-6.626,6.094-10.356,8.639c-1.094,0.746-2.207,1.463-3.345,2.132
			c-1.855,1.089-3.777,2.055-5.801,2.828c-1.881,0.717-3.804,1.307-5.845,1.261c-0.598-0.014-1.214-0.137-1.783-0.329
			c-1.029-0.349-1.555-1.144-1.664-2.214c-0.158-1.535,0.313-2.943,0.925-4.309c1.32-2.944,3.241-5.491,5.334-7.918
			c0.363-0.42,0.735-0.833,1.108-1.243c0.6-0.167,1.188-0.33,1.732-0.482c0.329-0.093,0.472-0.129,0.646-0.063
			c-0.379,0.583-0.735,1.132-0.735,1.132l0.015,0.024c-0.594,1.001-1.121,2.03-1.217,3.225c-0.068,0.853,0.142,1.607,0.926,2.073
			c0.68,0.404,1.437,0.449,2.203,0.367c0.572-0.062,1.128-0.167,1.672-0.31c1.361-0.354,2.649-0.931,3.91-1.577
			c2.536-1.3,4.863-2.92,7.05-4.74c2.395-1.994,4.613-4.16,6.391-6.74c0.105-0.152,0.208-0.305,0.309-0.459
			c0.679-1.042,1.246-2.141,1.467-3.395c0.248-1.404-0.412-2.501-1.639-2.722c-0.916-0.165-1.805-0.077-2.723,0.154
			c-0.139-0.361-0.275-0.717-0.407-1.056c0.673-0.268,1.335-0.532,2.006-0.767c1.746-0.613,3.526-1.088,5.402-1.005
			c0.94,0.042,1.843,0.244,2.529,0.944C40.722,6.469,40.782,7.483,40.646,8.51z"/>
		<g>
			<path fill="#FFFFFF" d="M182.054,8.553v0.625h-0.956v2.772h-0.788V9.178h-0.956V8.553H182.054z"/>
			<path fill="#FFFFFF" d="M184.228,10.582c0.029,0.064,0.056,0.129,0.083,0.196c0.026-0.068,0.054-0.135,0.084-0.199
				c0.03-0.064,0.06-0.127,0.091-0.188l0.872-1.716c0.015-0.03,0.032-0.052,0.048-0.069c0.016-0.016,0.035-0.028,0.055-0.036
				c0.02-0.008,0.043-0.012,0.069-0.014c0.026-0.001,0.055-0.002,0.09-0.002h0.602v3.397h-0.695V9.997
				c0-0.095,0.005-0.197,0.014-0.308l-0.9,1.746c-0.028,0.054-0.066,0.096-0.113,0.124c-0.047,0.028-0.101,0.042-0.162,0.042h-0.107
				c-0.061,0-0.115-0.014-0.162-0.042c-0.047-0.028-0.085-0.069-0.113-0.124l-0.905-1.749c0.006,0.054,0.011,0.108,0.014,0.162
				c0.003,0.054,0.005,0.103,0.005,0.148v1.954h-0.695V8.553h0.601c0.034,0,0.064,0.001,0.09,0.002
				c0.026,0.002,0.049,0.006,0.069,0.014c0.02,0.008,0.038,0.02,0.055,0.036c0.016,0.016,0.032,0.039,0.048,0.069l0.874,1.723
				C184.169,10.457,184.199,10.518,184.228,10.582z"/>
		</g>
		<path fill="#FFFFFF" d="M56.44,11.298h-3.065L44.96,31.453h3.817l1.649-4.019h8.965l1.649,4.019h3.816L56.44,11.298z
			 M51.553,24.455l3.354-8.213l3.355,8.213H51.553z"/>
		<path fill="#FFFFFF" d="M72.812,13.842c0.607,0,1.07,0.058,1.33,0.145v-2.978c-0.434-0.087-0.925-0.116-1.504-0.116
			c-1.649,0-2.834,0.318-3.614,0.954c-1.128,0.897-1.591,2.081-1.591,4.308v0.723h-2.372v3.152h2.372v11.422h3.469V20.031h2.748
			v-3.152h-2.748v-0.983C70.904,14.42,71.511,13.842,72.812,13.842z"/>
		<path fill="#FFFFFF" d="M84.219,16.589c-2.052,0-3.643,0.926-4.337,2.458v-2.169h-3.44v14.574h3.44V23.79
			c0-2.401,1.533-3.903,3.932-3.903c0.521,0,1.012,0.058,1.446,0.145v-3.355C84.971,16.618,84.624,16.589,84.219,16.589z"/>
		<path fill="#FFFFFF" d="M92.07,28.647c-0.781,0-1.012-0.405-1.012-1.532V16.879h-3.469V28.04c0,2.458,1.128,3.702,3.354,3.702
			c0.81,0,1.388-0.087,1.735-0.231V28.59C92.533,28.618,92.331,28.647,92.07,28.647z M89.324,11.066
			c-1.157,0-2.082,0.897-2.082,2.053c0,1.156,0.925,2.052,2.082,2.052c1.127,0,2.052-0.897,2.052-2.052
			C91.376,11.963,90.451,11.066,89.324,11.066z"/>
		<path fill="#FFFFFF" d="M102.176,28.705c-1.271,0-2.341-0.434-3.209-1.301c-0.839-0.866-1.273-1.965-1.273-3.267
			c0-1.301,0.434-2.401,1.273-3.268c0.868-0.866,1.938-1.3,3.209-1.3c1.446,0,2.69,0.521,3.702,1.589l2.14-2.226
			c-1.562-1.677-3.5-2.516-5.842-2.516c-2.226,0-4.106,0.752-5.639,2.227c-1.533,1.475-2.284,3.296-2.284,5.494
			s0.751,4.048,2.284,5.523c1.533,1.475,3.413,2.198,5.639,2.198c2.343,0,4.28-0.839,5.842-2.516l-2.14-2.226
			C104.866,28.185,103.622,28.705,102.176,28.705z"/>
		<path fill="#FFFFFF" d="M120.186,27.347c-0.839,0.838-1.909,1.271-3.152,1.271c-1.244,0-2.255-0.434-3.093-1.271
			c-0.81-0.839-1.215-1.909-1.215-3.181s0.405-2.343,1.215-3.181c0.839-0.838,1.85-1.271,3.093-1.271
			c1.244,0,2.314,0.434,3.152,1.271c0.868,0.839,1.301,1.909,1.301,3.181S121.054,26.508,120.186,27.347z M123.598,22.597
			c0-2.132,0.449-4.032,1.341-5.718h-3.712v2.111c-0.55-1.388-2.314-2.429-4.656-2.429c-2.052,0-3.788,0.723-5.205,2.198
			c-1.388,1.446-2.082,3.238-2.082,5.407s0.694,3.961,2.082,5.436c1.417,1.475,3.152,2.198,5.205,2.198
			c2.314,0,3.991-0.752,5.003-2.285c0.145,0.752,0.548,1.33,1.185,1.764c0.521,0.318,1.186,0.463,2.025,0.463
			c0.752,0,1.33-0.087,1.706-0.231v-0.956C124.57,28.369,123.598,25.732,123.598,22.597z"/>
		<path fill="#FFFFFF" d="M143.585,15.163c-1.996-1.994-4.454-3.007-7.374-3.007c-2.921,0-5.407,1.012-7.403,3.007
			c-1.996,1.996-3.008,4.454-3.008,7.432c0,2.979,1.012,5.437,3.008,7.432c1.996,1.996,4.482,2.979,7.403,2.979
			c2.92,0,5.378-0.983,7.374-2.979c2.025-1.994,3.036-4.453,3.036-7.432C146.62,19.617,145.609,17.158,143.585,15.163z
			 M142.544,29.014c-1.677,1.706-3.788,2.574-6.333,2.574c-2.574,0-4.685-0.868-6.391-2.574c-1.706-1.705-2.545-3.845-2.545-6.419
			c0-2.573,0.868-4.713,2.574-6.419c1.705-1.735,3.845-2.602,6.362-2.602c2.515,0,4.626,0.866,6.333,2.602
			c1.706,1.706,2.545,3.847,2.545,6.419C145.089,25.168,144.25,27.309,142.544,29.014z"/>
		<path fill="#FFFFFF" d="M162.691,31.443c-0.839,0-1.128-0.463-1.128-1.649v-6.13c0-3.556-2.197-5.812-5.523-5.812
			c-2.499,0-4.143,1-4.985,2.999c-0.006,0.012-0.012,0.025-0.017,0.037v-2.805h-1.446v14.574h1.446v-7.837
			c0-0.133,0.002-0.264,0.008-0.393c0.01-0.221,0.028-0.435,0.053-0.644c0.34-2.774,2.067-4.573,4.623-4.573
			c2.661,0,4.396,1.851,4.396,4.742v5.957c0,1.88,0.781,2.834,2.341,2.834c0.318,0,0.578-0.058,0.839-0.145v-1.215
			C162.98,31.414,162.778,31.443,162.691,31.443z"/>
		<path fill="#FFFFFF" d="M179.119,24.995c0-2.053-0.636-3.759-1.938-5.176c-1.273-1.417-2.892-2.111-4.829-2.111
			c-2.025,0-3.731,0.723-5.09,2.169c-1.359,1.417-2.025,3.267-2.025,5.523v0.087c0,2.227,0.665,4.019,1.996,5.436
			c1.359,1.388,3.066,2.082,5.176,2.082c2.343,0,4.251-0.839,5.727-2.545l-0.954-0.925c-1.359,1.417-2.95,2.111-4.772,2.111
			c-1.647,0-3.036-0.55-4.106-1.649c-1.07-1.098-1.62-2.515-1.649-4.279h12.435C179.119,25.515,179.119,25.284,179.119,24.995z
			 M166.713,24.416c0.058-1.504,0.636-2.777,1.706-3.788c1.099-1.041,2.401-1.562,3.933-1.562c1.474,0,2.689,0.521,3.701,1.562
			c1.012,1.041,1.533,2.313,1.562,3.788H166.713z"/>
	</g>
</g>
</svg>
